<svg width="48" height="46" viewBox="0 0 48 46" fill="none" xmlns="http://www.w3.org/2000/svg">
<path fill-rule="evenodd" clip-rule="evenodd" d="M24 4.50714C22.2989 4.5073 20.642 5.04888 19.2692 6.05345C17.8964 7.05804 16.8789 8.47349 16.3642 10.0948L14.5617 15.7727H33.4382L31.6358 10.0948C31.1209 8.47349 30.1036 7.05804 28.7308 6.05345C27.358 5.04888 25.7011 4.5073 24 4.50714ZM38.1653 15.7727L35.9302 8.73172C35.1265 6.19805 33.5369 3.98604 31.392 2.41614C29.247 0.846244 26.658 0 24 0C21.342 0 18.7528 0.846244 16.6079 2.41614C14.4629 3.98604 12.8735 6.19805 12.0698 8.73172L9.8347 15.7727H4.5061C3.80257 15.7727 3.10881 15.9374 2.4804 16.2537C1.85196 16.57 1.30632 17.029 0.887157 17.5941C0.467989 18.1592 0.186936 18.8144 0.0665076 19.5077C-0.053921 20.2007 -0.0103685 20.9125 0.19365 21.5857L2.72614 29.9447L5.85346 40.264C6.27409 41.6521 7.13004 42.8681 8.2949 43.7322C9.45976 44.5965 10.8717 45.0631 12.3221 45.0631H35.6778C37.1279 45.0626 38.5393 44.5958 39.7037 43.7315C40.8681 42.8674 41.7238 41.6516 42.1443 40.264L45.2738 29.9447L47.8063 21.5857C48.0104 20.9125 48.0539 20.2007 47.9334 19.5077C47.8131 18.8144 47.5319 18.1592 47.1128 17.5941C46.6937 17.029 46.148 16.57 45.5196 16.2537C44.8912 15.9374 44.1973 15.7727 43.4939 15.7727H38.1653ZM11.4817 20.2789H4.5061L6.55417 27.0382H15.0709L14.1471 20.2789H11.4817ZM18.6962 20.2789L19.6177 27.0382H28.3823L29.306 20.2789H18.6962ZM33.8528 20.2789L32.929 27.0382H41.4458L43.4939 20.2789H33.8528ZM40.0804 31.5444H32.3139L31.086 40.5569H35.6756C36.1591 40.5569 36.6298 40.4014 37.018 40.1132C37.4062 39.8253 37.6917 39.4199 37.8318 38.9571L40.0804 31.5444ZM26.5392 40.5569L27.7672 31.5444H20.2305L21.4607 40.5569H26.5392ZM16.9117 40.5569L15.6838 31.5444H7.91956L10.1659 38.9571C10.3061 39.4199 10.5914 39.8253 10.9797 40.1132C11.368 40.4014 11.8387 40.5569 12.3221 40.5569H16.9117Z" fill="#F8EFEA"/>
</svg>
